<svg xmlns="http://www.w3.org/2000/svg" xmlns:xlink="http://www.w3.org/1999/xlink" contentStyleType="text/css" data-diagram-type="CLASS" height="539px" preserveAspectRatio="none" style="width:553px;height:539px;background:#FFFFFF;" version="1.1" viewBox="0 0 553 539" width="553px" zoomAndPan="magnify"><defs/><g><!--class A--><g class="entity" data-entity="A" data-source-line="1" data-uid="ent0002" id="entity_A"><rect fill="#F1F1F1" height="525.8438" rx="2.5" ry="2.5" style="stroke:#181818;stroke-width:0.5;" width="164.0586" x="7" y="7"/><ellipse cx="56.7793" cy="23" fill="#ADD1B2" rx="11" ry="11" style="stroke:#181818;stroke-width:1;"/><path d="M59.5449,18.875 Q59.7012,18.6563 59.8887,18.5469 Q60.0762,18.4375 60.2949,18.4375 Q60.6699,18.4375 60.9043,18.7031 Q61.1387,18.9531 61.1387,19.5625 L61.1387,21.0156 Q61.1387,21.625 60.9043,21.8906 Q60.6699,22.1563 60.2949,22.1563 Q59.9512,22.1563 59.748,21.9531 Q59.5449,21.7656 59.4355,21.25 Q59.3887,20.8906 59.2012,20.7031 Q58.873,20.3281 58.2637,20.1094 Q57.6543,19.8906 57.0293,19.8906 Q56.2637,19.8906 55.623,20.2188 Q54.998,20.5469 54.498,21.2969 Q54.0137,22.0469 54.0137,23.0781 L54.0137,24.1719 Q54.0137,25.4063 54.9043,26.2344 Q55.7949,27.0469 57.3887,27.0469 Q58.3262,27.0469 58.9824,26.7969 Q59.373,26.6406 59.7949,26.2031 Q60.0605,25.9375 60.2012,25.8594 Q60.3574,25.7813 60.5605,25.7813 Q60.8887,25.7813 61.1387,26.0469 Q61.4043,26.2969 61.4043,26.6406 Q61.4043,26.9844 61.0605,27.3906 Q60.5605,27.9688 59.7637,28.2969 Q58.6855,28.75 57.3887,28.75 Q55.873,28.75 54.6699,28.125 Q53.6855,27.625 52.998,26.5625 Q52.3105,25.4844 52.3105,24.2031 L52.3105,23.0469 Q52.3105,21.7188 52.9199,20.5781 Q53.5449,19.4219 54.6387,18.8125 Q55.7324,18.1875 56.9668,18.1875 Q57.7012,18.1875 58.3418,18.3594 Q58.998,18.5156 59.5449,18.875 Z " fill="#000000"/><text fill="#000000" font-family="sans-serif" font-size="14" lengthAdjust="spacing" textLength="56" x="77.2793" y="28.7285">&#23439;&#35266;&#27493;&#39588;</text><line style="stroke:#181818;stroke-width:0.5;" x1="8" x2="170.0586" y1="39" y2="39"/><ellipse cx="18" cy="74.9141" fill="none" rx="3" ry="3" style="stroke:#038048;stroke-width:1;"/><text fill="#000000" font-family="sans-serif" font-size="14" lengthAdjust="spacing" textLength="96.0586" x="27" y="79.1426">&#9312;&#26377;&#38656;&#27714;&#30340;&#23398;&#20064;</text><ellipse cx="18" cy="92.5234" fill="none" rx="3" ry="3" style="stroke:#038048;stroke-width:1;"/><text fill="#000000" font-family="sans-serif" font-size="14" lengthAdjust="spacing" textLength="82.0586" x="27" y="96.752">&#9313;&#21046;&#23450;&#22909;&#30446;&#26631;</text><line style="stroke:#181818;stroke-width:1;" x1="8" x2="75.0293" y1="55.8047" y2="55.8047"/><line style="stroke:#181818;stroke-width:1;" x1="8" x2="75.0293" y1="57.8047" y2="57.8047"/><text fill="#000000" font-family="sans-serif" font-size="14" lengthAdjust="spacing" textLength="28" x="75.0293" y="61.0332">&#20934;&#22791;</text><line style="stroke:#181818;stroke-width:1;" x1="103.0293" x2="170.0586" y1="55.8047" y2="55.8047"/><line style="stroke:#181818;stroke-width:1;" x1="103.0293" x2="170.0586" y1="57.8047" y2="57.8047"/><ellipse cx="18" cy="131.7422" fill="none" rx="3" ry="3" style="stroke:#038048;stroke-width:1;"/><text fill="#000000" font-family="sans-serif" font-size="14" lengthAdjust="spacing" textLength="96.0586" x="27" y="135.9707">&#9314;&#23439;&#35266;&#23618;&#38754;&#20102;&#35299;</text><ellipse cx="18" cy="149.3516" fill="none" rx="3" ry="3" style="stroke:#038048;stroke-width:1;"/><text fill="#000000" font-family="sans-serif" font-size="14" lengthAdjust="spacing" textLength="68.0586" x="27" y="153.5801">&#9315;&#28145;&#24230;&#23398;&#20064;</text><line style="stroke:#181818;stroke-width:1;" x1="8" x2="75.0293" y1="112.6328" y2="112.6328"/><line style="stroke:#181818;stroke-width:1;" x1="8" x2="75.0293" y1="114.6328" y2="114.6328"/><text fill="#000000" font-family="sans-serif" font-size="14" lengthAdjust="spacing" textLength="28" x="75.0293" y="117.8613">&#35745;&#21010;</text><line style="stroke:#181818;stroke-width:1;" x1="103.0293" x2="170.0586" y1="112.6328" y2="112.6328"/><line style="stroke:#181818;stroke-width:1;" x1="103.0293" x2="170.0586" y1="114.6328" y2="114.6328"/><ellipse cx="18" cy="188.5703" fill="none" rx="3" ry="3" style="stroke:#038048;stroke-width:1;"/><text fill="#000000" font-family="sans-serif" font-size="14" lengthAdjust="spacing" textLength="68.0586" x="27" y="192.7988">&#9316;&#21046;&#20316;&#35838;&#20214;</text><ellipse cx="18" cy="206.1797" fill="none" rx="3" ry="3" style="stroke:#038048;stroke-width:1;"/><text fill="#000000" font-family="sans-serif" font-size="14" lengthAdjust="spacing" textLength="68.0586" x="27" y="210.4082">&#9317;&#35270;&#39057;&#35762;&#35299;</text><ellipse cx="18" cy="223.7891" fill="none" rx="3" ry="3" style="stroke:#038048;stroke-width:1;"/><text fill="#000000" font-family="sans-serif" font-size="14" lengthAdjust="spacing" textLength="96.0586" x="27" y="228.0176">&#9318;&#24102;&#30171;&#33510;&#30340;&#32451;&#20064;</text><line style="stroke:#181818;stroke-width:1;" x1="8" x2="61.0293" y1="169.4609" y2="169.4609"/><line style="stroke:#181818;stroke-width:1;" x1="8" x2="61.0293" y1="171.4609" y2="171.4609"/><text fill="#000000" font-family="sans-serif" font-size="14" lengthAdjust="spacing" textLength="56" x="61.0293" y="174.6895">&#29702;&#35299;&#35760;&#24518;</text><line style="stroke:#181818;stroke-width:1;" x1="117.0293" x2="170.0586" y1="169.4609" y2="169.4609"/><line style="stroke:#181818;stroke-width:1;" x1="117.0293" x2="170.0586" y1="171.4609" y2="171.4609"/><ellipse cx="18" cy="263.0078" fill="none" rx="3" ry="3" style="stroke:#038048;stroke-width:1;"/><text fill="#000000" font-family="sans-serif" font-size="14" lengthAdjust="spacing" textLength="124.0586" x="27" y="267.2363">&#9319;&#24050;&#23398;&#30693;&#35782;&#23618;&#23618;&#32452;&#21512;</text><ellipse cx="18" cy="280.6172" fill="none" rx="3" ry="3" style="stroke:#038048;stroke-width:1;"/><text fill="#000000" font-family="sans-serif" font-size="14" lengthAdjust="spacing" textLength="124.0586" x="27" y="284.8457">&#9320;&#25645;&#24314;&#33258;&#24049;&#30340;&#26696;&#20363;&#24211;</text><ellipse cx="18" cy="298.2266" fill="none" rx="3" ry="3" style="stroke:#038048;stroke-width:1;"/><text fill="#000000" font-family="sans-serif" font-size="14" lengthAdjust="spacing" textLength="68.0586" x="27" y="302.4551">&#9321;&#27169;&#25311;&#32771;&#35797;</text><ellipse cx="18" cy="315.8359" fill="none" rx="3" ry="3" style="stroke:#038048;stroke-width:1;"/><text fill="#000000" font-family="sans-serif" font-size="14" lengthAdjust="spacing" textLength="138.0586" x="27" y="320.0645">&#9322;&#25317;&#26377;&#25512;&#20498;&#37325;&#26469;&#30340;&#21191;&#27668;</text><line style="stroke:#181818;stroke-width:1;" x1="8" x2="75.0293" y1="243.8984" y2="243.8984"/><line style="stroke:#181818;stroke-width:1;" x1="8" x2="75.0293" y1="245.8984" y2="245.8984"/><text fill="#000000" font-family="sans-serif" font-size="14" lengthAdjust="spacing" textLength="28" x="75.0293" y="249.127">&#23454;&#25112;</text><line style="stroke:#181818;stroke-width:1;" x1="103.0293" x2="170.0586" y1="243.8984" y2="243.8984"/><line style="stroke:#181818;stroke-width:1;" x1="103.0293" x2="170.0586" y1="245.8984" y2="245.8984"/><ellipse cx="18" cy="355.0547" fill="none" rx="3" ry="3" style="stroke:#038048;stroke-width:1;"/><text fill="#000000" font-family="sans-serif" font-size="14" lengthAdjust="spacing" textLength="78.2031" x="27" y="359.2832">&#9323;github&#25552;&#20132;</text><ellipse cx="18" cy="372.6641" fill="none" rx="3" ry="3" style="stroke:#038048;stroke-width:1;"/><text fill="#000000" font-family="sans-serif" font-size="14" lengthAdjust="spacing" textLength="138.0586" x="27" y="376.8926">&#9324;&#21338;&#23458;&#35270;&#39057;&#31561;&#35266;&#20247;&#21453;&#39304;</text><ellipse cx="18" cy="390.2734" fill="none" rx="3" ry="3" style="stroke:#038048;stroke-width:1;"/><text fill="#000000" font-family="sans-serif" font-size="14" lengthAdjust="spacing" textLength="138.0586" x="27" y="394.502">&#9325;&#23454;&#25112;&#20013;&#23436;&#25104;&#30340;&#23567;&#39033;&#30446;</text><ellipse cx="18" cy="407.8828" fill="none" rx="3" ry="3" style="stroke:#038048;stroke-width:1;"/><text fill="#000000" font-family="sans-serif" font-size="14" lengthAdjust="spacing" textLength="110.0586" x="27" y="412.1113">&#9326;&#23398;&#20064;&#26102;&#38388;&#21487;&#35270;&#21270;</text><line style="stroke:#181818;stroke-width:1;" x1="8" x2="61.0293" y1="335.9453" y2="335.9453"/><line style="stroke:#181818;stroke-width:1;" x1="8" x2="61.0293" y1="337.9453" y2="337.9453"/><text fill="#000000" font-family="sans-serif" font-size="14" lengthAdjust="spacing" textLength="56" x="61.0293" y="341.1738">&#27491;&#21521;&#21453;&#39304;</text><line style="stroke:#181818;stroke-width:1;" x1="117.0293" x2="170.0586" y1="335.9453" y2="335.9453"/><line style="stroke:#181818;stroke-width:1;" x1="117.0293" x2="170.0586" y1="337.9453" y2="337.9453"/><ellipse cx="18" cy="447.1016" fill="none" rx="3" ry="3" style="stroke:#038048;stroke-width:1;"/><text fill="#000000" font-family="sans-serif" font-size="14" lengthAdjust="spacing" textLength="124.0586" x="27" y="451.3301">&#9327;&#30693;&#36947;&#24590;&#20040;&#29992;&#30340;&#23601;&#34892;</text><ellipse cx="18" cy="464.7109" fill="none" rx="3" ry="3" style="stroke:#038048;stroke-width:1;"/><text fill="#000000" font-family="sans-serif" font-size="14" lengthAdjust="spacing" textLength="110.0586" x="27" y="468.9395">&#9328;&#24536;&#20102;&#30475;&#25991;&#26723;&#23601;&#20250;</text><line style="stroke:#181818;stroke-width:1;" x1="8" x2="61.0293" y1="427.9922" y2="427.9922"/><line style="stroke:#181818;stroke-width:1;" x1="8" x2="61.0293" y1="429.9922" y2="429.9922"/><text fill="#000000" font-family="sans-serif" font-size="14" lengthAdjust="spacing" textLength="56" x="61.0293" y="433.2207">&#26368;&#32456;&#25928;&#26524;</text><line style="stroke:#181818;stroke-width:1;" x1="117.0293" x2="170.0586" y1="427.9922" y2="427.9922"/><line style="stroke:#181818;stroke-width:1;" x1="117.0293" x2="170.0586" y1="429.9922" y2="429.9922"/><ellipse cx="18" cy="503.9297" fill="none" rx="3" ry="3" style="stroke:#038048;stroke-width:1;"/><text fill="#000000" font-family="sans-serif" font-size="14" lengthAdjust="spacing" textLength="138.0586" x="27" y="508.1582">&#9329;&#22266;&#23450;&#26102;&#38388;&#23545;&#26576;&#19968;&#31867;&#21035;</text><text fill="#000000" font-family="sans-serif" font-size="14" lengthAdjust="spacing" textLength="56" x="27" y="525.7676">&#20869;&#23481;&#22797;&#20064;</text><line style="stroke:#181818;stroke-width:1;" x1="8" x2="75.0293" y1="484.8203" y2="484.8203"/><line style="stroke:#181818;stroke-width:1;" x1="8" x2="75.0293" y1="486.8203" y2="486.8203"/><text fill="#000000" font-family="sans-serif" font-size="14" lengthAdjust="spacing" textLength="28" x="75.0293" y="490.0488">&#22797;&#20064;</text><line style="stroke:#181818;stroke-width:1;" x1="103.0293" x2="170.0586" y1="484.8203" y2="484.8203"/><line style="stroke:#181818;stroke-width:1;" x1="103.0293" x2="170.0586" y1="486.8203" y2="486.8203"/></g><path d="M206,158 L206,183.5273 L109.0586,91.0234 L206,191.5273 L206,217.0547 A0,0 0 0 0 206,217.0547 L546.2236,217.0547 A0,0 0 0 0 546.2236,217.0547 L546.2236,168 L536.2236,158 L206,158 A0,0 0 0 0 206,158" fill="#FFC0CB" style="stroke:#181818;stroke-width:0.5;"/><path d="M536.2236,158 L536.2236,168 L546.2236,168 L536.2236,158" fill="#FFC0CB" style="stroke:#181818;stroke-width:0.5;"/><text fill="#000000" font-family="sans-serif" font-size="13" lengthAdjust="spacing" textLength="164.6899" x="212" y="176.4951">&#30701;&#26399;&#30446;&#26631;?&#38271;&#26399;&#30446;&#26631;?&#24635;&#30446;&#26631;?</text><text fill="#000000" font-family="sans-serif" font-size="13" lengthAdjust="spacing" textLength="319.2236" x="212" y="192.8467">&#23398;&#20064;&#30340;&#26102;&#20505;,&#26102;&#21051;&#24819;&#30528;,&#36825;&#20123;&#19996;&#35199;&#19982;&#20320;&#30340;&#30446;&#26631;&#26399;&#26395;&#26159;&#21542;&#30456;&#31526;</text><text fill="#000000" font-family="sans-serif" font-size="13" lengthAdjust="spacing" textLength="133.6118" x="212" y="209.1982">&#22914;&#26524;&#20559;&#31163;&#33322;&#32447;,&#21450;&#26102;&#26356;&#27491;</text><path d="M206,227.0547 L206,244.4063 L95.0586,147.8516 L206,252.4063 L206,269.7578 A0,0 0 0 0 206,269.7578 L484.8354,269.7578 A0,0 0 0 0 484.8354,269.7578 L484.8354,237.0547 L474.8354,227.0547 L206,227.0547 A0,0 0 0 0 206,227.0547" fill="#FFC0CB" style="stroke:#181818;stroke-width:0.5;"/><path d="M474.8354,227.0547 L474.8354,237.0547 L484.8354,237.0547 L474.8354,227.0547" fill="#FFC0CB" style="stroke:#181818;stroke-width:0.5;"/><text fill="#000000" font-family="sans-serif" font-size="13" lengthAdjust="spacing" textLength="257.8354" x="212" y="245.5498">&#27880;&#24847;,&#28145;&#24230;&#23398;&#20064;&#30340;&#20869;&#23481;,&#24517;&#39035;&#20197;&#23454;&#29616;&#30446;&#26631;&#20026;&#21069;&#25552;,</text><text fill="#000000" font-family="sans-serif" font-size="13" lengthAdjust="spacing" textLength="133.6118" x="212" y="261.9014">&#22914;&#26524;&#27627;&#19981;&#30456;&#24178;,&#19981;&#23398;&#20063;&#32610;</text><path d="M206,279.7578 L206,321.6367 L123.0586,222.2891 L206,329.6367 L206,371.5156 A0,0 0 0 0 206,371.5156 L546.2236,371.5156 A0,0 0 0 0 546.2236,371.5156 L546.2236,289.7578 L536.2236,279.7578 L206,279.7578 A0,0 0 0 0 206,279.7578" fill="#FFC0CB" style="stroke:#181818;stroke-width:0.5;"/><path d="M536.2236,279.7578 L536.2236,289.7578 L546.2236,289.7578 L536.2236,279.7578" fill="#FFC0CB" style="stroke:#181818;stroke-width:0.5;"/><text fill="#000000" font-family="sans-serif" font-size="13" lengthAdjust="spacing" textLength="309.8354" x="212" y="298.2529">&#19968;&#33324;&#30340;&#32451;&#20064;,&#25105;&#20204;&#21487;&#33021;&#23601;&#26159;&#36319;&#30528;&#32451;,&#35270;&#39057;&#25110;&#32773;&#20070;&#19978;&#20570;&#20160;&#20040;,</text><text fill="#000000" font-family="sans-serif" font-size="13" lengthAdjust="spacing" textLength="306.2236" x="212" y="314.6045">&#25105;&#20204;&#27169;&#20223;&#19968;&#36793;.&#32780;&#30171;&#33510;&#30340;&#32451;&#20064;&#23601;&#26159;&#25552;&#21319;&#38590;&#24230;&#30340;&#32451;&#20064;,&#27604;&#22914;</text><text fill="#000000" font-family="sans-serif" font-size="13" lengthAdjust="spacing" textLength="319.2236" x="212" y="330.9561">&#23558;&#28304;&#20195;&#30721;&#30452;&#25509;&#21435;&#25481;,&#30452;&#25509;&#25353;&#29031;&#25104;&#21697;&#33258;&#24049;&#22797;&#29616;,&#25110;&#32773;&#22312;&#21407;&#26377;&#30340;</text><text fill="#000000" font-family="sans-serif" font-size="13" lengthAdjust="spacing" textLength="296.8354" x="212" y="347.3076">&#22522;&#30784;&#20043;&#19978;,&#28155;&#21152;&#19978;&#19968;&#20123;&#20043;&#21069;&#23398;&#36807;&#30340;&#19996;&#35199;,&#24418;&#25104;&#32452;&#21512;&#32451;&#20064;,</text><text fill="#000000" font-family="sans-serif" font-size="13" lengthAdjust="spacing" textLength="315.6118" x="212" y="363.6592">&#20063;&#21487;&#20197;&#38382;&#19968;&#20123;&#35814;&#32454;&#38382;&#39064;,&#30475;&#30475;&#20197;&#21518;&#24471;&#33258;&#24049;&#33021;&#21542;&#20877;&#22238;&#31572;&#19978;&#26469;</text><!--SRC=[VLJRRjj647tdLn3fOub-G02Xo1_q5z8cJOmM3b2xJqK1oXUHiYIAZYzo9Dgwab9jYvISmEObalwbs9bT_aM7MeOXYg840UroPy-SEMT6F_twSczFVGP-MqmFSEwcjvDdwiizzSKVYafFfG963IP6fRBTVgl-VJf0fvuwEYuFUFS8vXwB1iNP4Cn7yBlWhdZFnu6HOmYV3jwNC4Oo7omFqkiHYsjYEYxEnlYqXDWh8LSgtCv2XB-0JQq4Cw5qREM8OCsIn-AhAwQrT7Gg_8Soh0UXnpizqV28DayEluA3VuFcLGbs2ayFb9xtNH7KY2EzF3a2somYPcZF8Oc5SGjFIyB3eSdM3OZFYeY_S3R4Hb_eXoAuABxUOiCb-T2QWVu-DLfuxMOYDWnSdETiS3u6-nJQhTGpIvpktkpil_tzHspRB9uKN- -XrGL_90lcypffoZvtvEKYQ2uBP24jccZQMSP5Enr6v54Hv4kziVEOTZv1Eo18Q5v-uUJeF37nmiGRfyGf88NIwXdg5ejCVZxR0Y_5i5b4a5zNP2zt6dXfu71Cn-npzulkanPbBE4jeHTJz-GSWWZxDWjrlap0lDi6vG_KZi6Fv7NbJqNPVRV_MlrjvytRVVNTp-gBvy-f4TLlVjZP_KNX_JawVTcCtwSNcwyRr9DyfSZICnixZw1_qB8VCy73Z_nQryJc0ujxB7I4ks6XnLPPeBn9OEZqy2e0s-EzaDzx2dW7f15KsznBX7dBuuq6xHC2nDudSbPvlVjApUZ-9-bnJXe_pl2ehPNd89DsMxK6c-DqcB349LUvjP1CM1X3lKNDeUKCCBXZOOj8GVIWqMgBqkUhqVypy7869Bimxuj1qT0yPSbzrXQ7A_AGIXPFVLA7ZZNPV6XU2lsOHHuBJw3QPObEFQ4fyYBD0ais6UWw-axepN_DeKGazj0oqkwQYYvb3iwf8WKMDOnjbepveCf9Iii5Aq6hhiaDDklyU4gz3MTLEPJK7QIE9cc1CmEBlAeJhWBzc0-9NOEOaiO9d0neHUGocwC6wKXYYOr1iT9r3LQZR6osVm4vBONK93d8XhJZoxiYy7XIesqwkjAeu-dDNB8jM7SafqmysuDQ2tetV7vEMMd-2qF-0G00]--></g></svg>