<svg xmlns="http://www.w3.org/2000/svg" xmlns:xlink="http://www.w3.org/1999/xlink" contentStyleType="text/css" data-diagram-type="CLASS" height="422px" preserveAspectRatio="none" style="width:668px;height:422px;background:#FFFFFF;" version="1.1" viewBox="0 0 668 422" width="668px" zoomAndPan="magnify"><defs/><g><!--class A--><g class="entity" data-entity="A" data-source-line="1" data-uid="ent0002" id="entity_A"><rect fill="#F1F1F1" height="236.0938" rx="2.5" ry="2.5" style="stroke:#181818;stroke-width:0.5;" width="88" x="288.5" y="98"/><ellipse cx="303.5" cy="114" fill="#ADD1B2" rx="11" ry="11" style="stroke:#181818;stroke-width:1;"/><path d="M306.2656,109.875 Q306.4219,109.6563 306.6094,109.5469 Q306.7969,109.4375 307.0156,109.4375 Q307.3906,109.4375 307.625,109.7031 Q307.8594,109.9531 307.8594,110.5625 L307.8594,112.0156 Q307.8594,112.625 307.625,112.8906 Q307.3906,113.1563 307.0156,113.1563 Q306.6719,113.1563 306.4688,112.9531 Q306.2656,112.7656 306.1563,112.25 Q306.1094,111.8906 305.9219,111.7031 Q305.5938,111.3281 304.9844,111.1094 Q304.375,110.8906 303.75,110.8906 Q302.9844,110.8906 302.3438,111.2188 Q301.7188,111.5469 301.2188,112.2969 Q300.7344,113.0469 300.7344,114.0781 L300.7344,115.1719 Q300.7344,116.4063 301.625,117.2344 Q302.5156,118.0469 304.1094,118.0469 Q305.0469,118.0469 305.7031,117.7969 Q306.0938,117.6406 306.5156,117.2031 Q306.7813,116.9375 306.9219,116.8594 Q307.0781,116.7813 307.2813,116.7813 Q307.6094,116.7813 307.8594,117.0469 Q308.125,117.2969 308.125,117.6406 Q308.125,117.9844 307.7813,118.3906 Q307.2813,118.9688 306.4844,119.2969 Q305.4063,119.75 304.1094,119.75 Q302.5938,119.75 301.3906,119.125 Q300.4063,118.625 299.7188,117.5625 Q299.0313,116.4844 299.0313,115.2031 L299.0313,114.0469 Q299.0313,112.7188 299.6406,111.5781 Q300.2656,110.4219 301.3594,109.8125 Q302.4531,109.1875 303.6875,109.1875 Q304.4219,109.1875 305.0625,109.3594 Q305.7188,109.5156 306.2656,109.875 Z " fill="#000000"/><text fill="#000000" font-family="sans-serif" font-size="14" lengthAdjust="spacing" textLength="56" x="317.5" y="119.7285">&#24037;&#20855;&#20351;&#29992;</text><line style="stroke:#181818;stroke-width:0.5;" x1="289.5" x2="375.5" y1="130" y2="130"/><ellipse cx="299.5" cy="165.9141" fill="none" rx="3" ry="3" style="stroke:#038048;stroke-width:1;"/><text fill="#000000" font-family="sans-serif" font-size="14" lengthAdjust="spacing" textLength="40.0586" x="308.5" y="170.1426">&#9312;&#25552;&#31034;</text><line style="stroke:#181818;stroke-width:1;" x1="289.5" x2="297.5" y1="146.8047" y2="146.8047"/><line style="stroke:#181818;stroke-width:1;" x1="289.5" x2="297.5" y1="148.8047" y2="148.8047"/><text fill="#000000" font-family="sans-serif" font-size="14" lengthAdjust="spacing" textLength="70" x="297.5" y="152.0332">&#38543;&#26426;&#25552;&#31034;&#38899;</text><line style="stroke:#181818;stroke-width:1;" x1="367.5" x2="375.5" y1="146.8047" y2="146.8047"/><line style="stroke:#181818;stroke-width:1;" x1="367.5" x2="375.5" y1="148.8047" y2="148.8047"/><ellipse cx="299.5" cy="205.1328" fill="none" rx="3" ry="3" style="stroke:#038048;stroke-width:1;"/><text fill="#000000" font-family="sans-serif" font-size="14" lengthAdjust="spacing" textLength="40.0586" x="308.5" y="209.3613">&#9313;&#25552;&#31034;</text><line style="stroke:#181818;stroke-width:1;" x1="289.5" x2="307.9966" y1="186.0234" y2="186.0234"/><line style="stroke:#181818;stroke-width:1;" x1="289.5" x2="307.9966" y1="188.0234" y2="188.0234"/><text fill="#000000" font-family="sans-serif" font-size="14" lengthAdjust="spacing" textLength="49.0068" x="307.9966" y="191.252">Clockify</text><line style="stroke:#181818;stroke-width:1;" x1="357.0034" x2="375.5" y1="186.0234" y2="186.0234"/><line style="stroke:#181818;stroke-width:1;" x1="357.0034" x2="375.5" y1="188.0234" y2="188.0234"/><ellipse cx="299.5" cy="244.3516" fill="none" rx="3" ry="3" style="stroke:#038048;stroke-width:1;"/><text fill="#000000" font-family="sans-serif" font-size="14" lengthAdjust="spacing" textLength="40.0586" x="308.5" y="248.5801">&#9314;&#25552;&#31034;</text><line style="stroke:#181818;stroke-width:1;" x1="289.5" x2="304.5" y1="225.2422" y2="225.2422"/><line style="stroke:#181818;stroke-width:1;" x1="289.5" x2="304.5" y1="227.2422" y2="227.2422"/><text fill="#000000" font-family="sans-serif" font-size="14" lengthAdjust="spacing" textLength="56" x="304.5" y="230.4707">&#24453;&#21150;&#32452;&#20214;</text><line style="stroke:#181818;stroke-width:1;" x1="360.5" x2="375.5" y1="225.2422" y2="225.2422"/><line style="stroke:#181818;stroke-width:1;" x1="360.5" x2="375.5" y1="227.2422" y2="227.2422"/><ellipse cx="299.5" cy="283.5703" fill="none" rx="3" ry="3" style="stroke:#038048;stroke-width:1;"/><text fill="#000000" font-family="sans-serif" font-size="14" lengthAdjust="spacing" textLength="40.0586" x="308.5" y="287.7988">&#9315;&#25552;&#31034;</text><line style="stroke:#181818;stroke-width:1;" x1="289.5" x2="304.5" y1="264.4609" y2="264.4609"/><line style="stroke:#181818;stroke-width:1;" x1="289.5" x2="304.5" y1="266.4609" y2="266.4609"/><text fill="#000000" font-family="sans-serif" font-size="14" lengthAdjust="spacing" textLength="56" x="304.5" y="269.6895">&#20107;&#39033;&#28165;&#21333;</text><line style="stroke:#181818;stroke-width:1;" x1="360.5" x2="375.5" y1="264.4609" y2="264.4609"/><line style="stroke:#181818;stroke-width:1;" x1="360.5" x2="375.5" y1="266.4609" y2="266.4609"/><ellipse cx="299.5" cy="322.7891" fill="none" rx="3" ry="3" style="stroke:#038048;stroke-width:1;"/><text fill="#000000" font-family="sans-serif" font-size="14" lengthAdjust="spacing" textLength="40.0586" x="308.5" y="327.0176">&#9316;&#25552;&#31034;</text><line style="stroke:#181818;stroke-width:1;" x1="289.5" x2="311.5" y1="303.6797" y2="303.6797"/><line style="stroke:#181818;stroke-width:1;" x1="289.5" x2="311.5" y1="305.6797" y2="305.6797"/><text fill="#000000" font-family="sans-serif" font-size="14" lengthAdjust="spacing" textLength="42" x="311.5" y="308.9082">&#38543;&#26426;&#24615;</text><line style="stroke:#181818;stroke-width:1;" x1="353.5" x2="375.5" y1="303.6797" y2="303.6797"/><line style="stroke:#181818;stroke-width:1;" x1="353.5" x2="375.5" y1="305.6797" y2="305.6797"/></g><path d="M412,6 L412,47.8789 L348.5586,164.4141 L412,55.8789 L412,97.7578 A0,0 0 0 0 412,97.7578 L618.6118,97.7578 A0,0 0 0 0 618.6118,97.7578 L618.6118,16 L608.6118,6 L412,6 A0,0 0 0 0 412,6" fill="#FFC0CB" style="stroke:#181818;stroke-width:0.5;"/><path d="M608.6118,6 L608.6118,16 L618.6118,16 L608.6118,6" fill="#FFC0CB" style="stroke:#181818;stroke-width:0.5;"/><text fill="#000000" font-family="sans-serif" font-size="13" lengthAdjust="spacing" textLength="184.1963" x="418" y="24.4951">&#25928;&#26524;&#26159;&#27599;5min&#38543;&#26426;&#21709;,&#25345;&#32493;90min</text><text fill="#000000" font-family="sans-serif" font-size="13" lengthAdjust="spacing" textLength="148.0781" x="418" y="40.8467">&#21709;&#21518;&#20572;&#30041;10s(&#20241;&#24687;?&#20901;&#24819;?)</text><text fill="#000000" font-family="sans-serif" font-size="13" lengthAdjust="spacing" textLength="179.1626" x="418" y="57.1982">90min&#21518;&#38656;&#35201;&#20241;&#24687;10min-20min,</text><text fill="#000000" font-family="sans-serif" font-size="13" lengthAdjust="spacing" textLength="130" x="418" y="73.5498">&#20241;&#24687;&#26102;&#26460;&#32477;&#25163;&#26426;&#28216;&#25103;&#31561;</text><text fill="#000000" font-family="sans-serif" font-size="13" lengthAdjust="spacing" textLength="185.6118" x="418" y="89.9014">&#27599;&#38543;&#26426;&#21709;&#19968;&#19979;,&#20854;&#23454;&#23601;&#26159;&#19968;&#27425;&#21453;&#39304;</text><path d="M412,107.7578 L412,157.8125 L348.5586,242.8516 L412,165.8125 L412,215.8672 A0,0 0 0 0 412,215.8672 L661.2236,215.8672 A0,0 0 0 0 661.2236,215.8672 L661.2236,117.7578 L651.2236,107.7578 L412,107.7578 A0,0 0 0 0 412,107.7578" fill="#FFC0CB" style="stroke:#181818;stroke-width:0.5;"/><path d="M651.2236,107.7578 L651.2236,117.7578 L661.2236,117.7578 L651.2236,107.7578" fill="#FFC0CB" style="stroke:#181818;stroke-width:0.5;"/><text fill="#000000" font-family="sans-serif" font-size="13" lengthAdjust="spacing" textLength="185.6118" x="418" y="126.2529">&#36825;&#20010;&#26159;&#26497;&#24207;&#20013;&#30340;&#36719;&#20214;,&#22312;&#25105;&#26700;&#38754;&#19978;</text><text fill="#000000" font-family="sans-serif" font-size="13" lengthAdjust="spacing" textLength="218.8354" x="418" y="142.6045">&#35828;&#26469;&#24813;&#24871;,&#24456;&#26089;&#23601;&#24324;&#20102;,&#19968;&#30452;&#27809;&#29992;,&#29616;&#22312;&#20063;</text><text fill="#000000" font-family="sans-serif" font-size="13" lengthAdjust="spacing" textLength="224.6118" x="418" y="158.9561">&#31639;&#26159;&#29992;&#19978;&#20102;.&#25105;&#35273;&#24471;&#21482;&#38656;&#35201;&#32479;&#35745;&#19968;&#19979;&#24403;&#22825;</text><text fill="#000000" font-family="sans-serif" font-size="13" lengthAdjust="spacing" textLength="215.2236" x="418" y="175.3076">&#30340;&#20219;&#21153;&#30446;&#26631;&#23601;&#34892;,&#25353;&#29031;&#21069;&#38754;&#35828;&#30340;,&#26497;&#33268;&#22320;</text><text fill="#000000" font-family="sans-serif" font-size="13" lengthAdjust="spacing" textLength="228.2236" x="418" y="191.6592">&#32454;&#20998;,&#19981;&#33021;&#23558;&#19968;&#20010;&#24222;&#22823;&#30340;&#20219;&#21153;&#25918;&#19978;&#21435;,&#30475;&#19968;</text><text fill="#000000" font-family="sans-serif" font-size="13" lengthAdjust="spacing" textLength="68.6118" x="418" y="208.0107">&#30524;&#37117;&#19981;&#24819;&#24178;.</text><path d="M412,225.8672 L412,316.8008 L348.5586,321.2891 L412,324.8008 L412,415.7344 A0,0 0 0 0 412,415.7344 L644.6118,415.7344 A0,0 0 0 0 644.6118,415.7344 L644.6118,235.8672 L634.6118,225.8672 L412,225.8672 A0,0 0 0 0 412,225.8672" fill="#FFC0CB" style="stroke:#181818;stroke-width:0.5;"/><path d="M634.6118,225.8672 L634.6118,235.8672 L644.6118,235.8672 L634.6118,225.8672" fill="#FFC0CB" style="stroke:#181818;stroke-width:0.5;"/><text fill="#000000" font-family="sans-serif" font-size="13" lengthAdjust="spacing" textLength="198.6118" x="418" y="244.3623">&#36825;&#20010;&#26159;&#25105;&#20043;&#21069;&#33258;&#24049;&#20889;&#30340;&#23567;&#36719;&#20214;.&#22240;&#20026;</text><text fill="#000000" font-family="sans-serif" font-size="13" lengthAdjust="spacing" textLength="198.6118" x="418" y="260.7139">&#20043;&#21069;&#20113;&#39030;&#29609;&#30340;&#27604;&#36739;&#22810;,&#21069;&#27573;&#26102;&#20505;&#20063;&#32463;</text><text fill="#000000" font-family="sans-serif" font-size="13" lengthAdjust="spacing" textLength="202.2236" x="418" y="277.0654">&#24120;&#30475;&#20113;&#39030;&#30452;&#25773;,&#25152;&#20197;&#25105;&#23601;&#21453;&#24605;,&#20160;&#20040;&#35753;</text><text fill="#000000" font-family="sans-serif" font-size="13" lengthAdjust="spacing" textLength="205.8418" x="418" y="293.417">&#25105;&#36825;&#20040;&#30528;&#36855;&#21602;?&#24819;&#26469;&#24819;&#21435;,&#21407;&#26469;&#26159;&#28023;&#20811;</text><text fill="#000000" font-family="sans-serif" font-size="13" lengthAdjust="spacing" textLength="205.8354" x="418" y="309.7686">&#26031;.&#21363;&#23558;&#21047;&#26032;&#30340;&#28023;&#20811;&#26031;,&#19968;&#30452;&#21560;&#24341;&#30528;&#25105;,</text><text fill="#000000" font-family="sans-serif" font-size="13" lengthAdjust="spacing" textLength="209.46" x="418" y="326.1201">&#24635;&#26159;&#24819;&#20250;&#26159;&#20160;&#20040;&#21602;?&#26159;&#19981;&#26159;&#24425;?&#22914;&#26524;&#19981;</text><text fill="#000000" font-family="sans-serif" font-size="13" lengthAdjust="spacing" textLength="209.4536" x="418" y="342.4717">&#26159;&#24425;&#30340;&#35805;,&#25105;&#20250;&#24819;,&#19979;&#19968;&#20010;&#20250;&#19981;&#20250;&#26159;&#24425;?</text><text fill="#000000" font-family="sans-serif" font-size="13" lengthAdjust="spacing" textLength="211.6118" x="418" y="358.8232">&#25152;&#20197;&#25105;&#27169;&#25311;&#20102;&#36825;&#31181;&#21246;&#24341;&#25105;&#30340;&#30340;&#25928;&#26524;,&#29992;</text><text fill="#000000" font-family="sans-serif" font-size="13" lengthAdjust="spacing" textLength="202.2236" x="418" y="375.1748">&#21040;&#23398;&#20064;&#19978;.&#19981;&#36807;&#24403;&#26102;&#20160;&#20040;&#37117;&#24819;&#24324;,&#28155;&#21152;</text><text fill="#000000" font-family="sans-serif" font-size="13" lengthAdjust="spacing" textLength="211.6118" x="418" y="391.5264">&#30340;&#19996;&#35199;&#27604;&#36739;&#22810;,&#21171;&#21160;&#33410;&#22238;&#26657;&#20043;&#21518;&#20063;&#23601;&#27809;</text><text fill="#000000" font-family="sans-serif" font-size="13" lengthAdjust="spacing" textLength="42.6118" x="418" y="407.8779">&#20877;&#24324;&#20102;.</text><path d="M6,106 L6,246.8125 A0,0 0 0 0 6,246.8125 L253.0718,246.8125 A0,0 0 0 0 253.0718,246.8125 L253.0718,180.4063 L292.5,203.6328 L253.0718,172.4063 L253.0718,116 L243.0718,106 L6,106 A0,0 0 0 0 6,106" fill="#87CEFA" style="stroke:#181818;stroke-width:0.5;"/><path d="M243.0718,106 L243.0718,116 L253.0718,116 L243.0718,106" fill="#87CEFA" style="stroke:#181818;stroke-width:0.5;"/><text fill="#000000" font-family="sans-serif" font-size="13" lengthAdjust="spacing" textLength="195.0127" x="12" y="124.4951">&#36825;&#20010;&#26159;&#20223;&#29031;steam,&#29992;&#26469;&#32479;&#35745;&#25105;&#23398;&#20064;</text><text fill="#000000" font-family="sans-serif" font-size="13" lengthAdjust="spacing" textLength="198.6245" x="12" y="140.8467">&#26102;&#38271;&#30340;&#36719;&#20214;.&#25105;&#24819;&#20102;&#24819;,steam&#20013;&#28216;&#25103;</text><text fill="#000000" font-family="sans-serif" font-size="13" lengthAdjust="spacing" textLength="215.2236" x="12" y="157.1982">&#28216;&#29609;&#26102;&#38271;,&#20284;&#20046;&#20063;&#26159;&#19968;&#31181;&#21453;&#39304;&#20316;&#29992;,&#37027;&#20040;</text><text fill="#000000" font-family="sans-serif" font-size="13" lengthAdjust="spacing" textLength="218.8418" x="12" y="173.5498">&#35760;&#24405;&#23398;&#20064;&#26102;&#38271;,&#19981;&#20063;&#26159;&#19968;&#31181;&#21453;&#39304;&#20316;&#29992;&#21527;?</text><text fill="#000000" font-family="sans-serif" font-size="13" lengthAdjust="spacing" textLength="226.0718" x="12" y="189.9014">&#22312;&#25105;&#23398;&#20064;Java&#30340;&#26102;&#20505;&#19968;&#30452;&#29992;&#30528;,&#24863;&#35273;&#25928;&#26524;</text><text fill="#000000" font-family="sans-serif" font-size="13" lengthAdjust="spacing" textLength="220.3081" x="12" y="206.2529">&#19981;&#38169;.&#19981;&#36807;&#23545;&#20110;Python&#32780;&#35328;,&#25105;&#27809;&#26377;&#32454;&#20998;,</text><text fill="#000000" font-family="sans-serif" font-size="13" lengthAdjust="spacing" textLength="211.6436" x="12" y="222.6045">&#27604;&#22914;&#21508;&#31181;&#21253;&#30340;&#23398;&#20064;&#25105;&#20063;&#24402;&#20026;python.&#20294;</text><text fill="#000000" font-family="sans-serif" font-size="13" lengthAdjust="spacing" textLength="172.6118" x="12" y="238.9561">&#29616;&#22312;&#24863;&#35273;&#20840;&#37117;&#32454;&#20998;&#24320;&#26469;&#27604;&#36739;&#22909;.</text><path d="M6,256.8125 L6,315.8672 A0,0 0 0 0 6,315.8672 L242.2236,315.8672 A0,0 0 0 0 242.2236,315.8672 L242.2236,290.3398 L292.5,282.0703 L242.2236,282.3398 L242.2236,266.8125 L232.2236,256.8125 L6,256.8125 A0,0 0 0 0 6,256.8125" fill="#87CEFA" style="stroke:#181818;stroke-width:0.5;"/><path d="M232.2236,256.8125 L232.2236,266.8125 L242.2236,266.8125 L232.2236,256.8125" fill="#87CEFA" style="stroke:#181818;stroke-width:0.5;"/><text fill="#000000" font-family="sans-serif" font-size="13" lengthAdjust="spacing" textLength="211.6118" x="12" y="275.3076">&#36825;&#20010;&#36319;&#19978;&#38754;&#30340;&#31867;&#20284;,&#25171;&#31639;&#23384;&#25918;&#38271;&#26399;&#20219;&#21153;</text><text fill="#000000" font-family="sans-serif" font-size="13" lengthAdjust="spacing" textLength="215.2236" x="12" y="291.6592">&#31639;&#20102;,&#24863;&#35273;&#36824;&#26159;&#38656;&#35201;&#20877;&#20180;&#32454;&#21010;&#20998;&#19968;&#19979;&#30340;,</text><text fill="#000000" font-family="sans-serif" font-size="13" lengthAdjust="spacing" textLength="146.6118" x="12" y="308.0107">&#36825;&#20040;&#31616;&#21333;&#35828;&#35828;&#20182;&#22826;&#33609;&#29575;&#20102;.</text><!--SRC=[VLJRJYD747tlhnWjBuaoGRkHyf2L4DhaBSh3Ila2ie4iWeKe9f5G56a0s_Y2Ru2vZYy3DZOeld1PFFPux7-9kdh6Vv7Jqru3saqG6cjwJbUTEdMgtYpFXKBQC-fKATBXxj3Rhp_JvaBQgp-PXh-PcT59HfWzaSbwbTweT3ip4vn_eVsJAwl3CUwxvTKtIuiBwuy0rXC03IAKA7fEc3ltZq1dJq2ybnnPNM57A9L_13f_0XfJCcgF49KnuY_6LbRNvhNV5dzvkwQjBcYlNhu4LMtgzUBA4XFvc2YQugWbMfcltoskg4YqbzB5peRdDBvvZaE6TygcQSFqyiSldeS-u_sSs6ZDKhGgjcvdFsS12eYHQVWN6-hh2tdsvLVogJDr90xlHS7qd8A89oLVsnQnZDU8CoIV9EQsmUsaJf5xQXQfVGrkE19_MvH9ZIvYR7xbPqqMfAfQdbzuAChIffPbbQ6bzP-MVvzd_l2OsrSoW3Fq8hNGslpSEntz58MgvvJyfYLYEMfSy6wPWTeeF_HEmhuBzFqqlg0qtelYgGSNkTrGX1b-lFIbkg7pVfztqxnRKZozMahnvAw9JFfeyvntOynljidDgrmVBjgf_xf5sSDPHcPzGk_xkJ_cm0qtoJYM-DCxmBo2eOjmoQ_5LHSPGexsZwVnum-tgTNblVJhzRMtgok-iUFN0KPHDvOmuvuJfLXKX-xxTB59sR0ai1D1YZ75M0xSoDtbTk_N8C8qTwFCIxSbgo0bHUgZBLS5ehu1IH7C7snHrPr-wD6dh7SsjjwaEwAuGRqCz9t8hwlYXRKpAfnnEy7yrftCiDKGuPfEWvWul8Grg1z6XtGb22gJWYkEOC-yvY62umm109CjbRm7XvIvKaPL9b268tUFAfSC5BZZKCBoJfkYl8qalhM3MOZ3FnHFWGwe0AI3jBzzHsQRZSMKgc-vr8u6yQweLwHARH9Ex0z0WzAExfb989Xdzg4VBi5WrBtvIBCdnZxNfdwG6lwujFxjWx7zJWanGGbPl6i7JjH5V0zbK-C8-M0oOPPKUYc6b4hrpXyUGHcb0KLJtDaFQjX56KeCMM2Gf1lpcWOs3uh6FtSEg7Bbf-9UUbig-lzzhdpKP-cg95Jqjw-eSqtHOscuTcOySdHQXjsOWl1URcJTOyoaxPMnAYSwFeZc-_4OT4kUas64OOIY2WuNx3OWWi6TgXmUM2IJ4aP1vuw1Mlpc9PCkK8KL37_OeTpPB3eGcEjMjeVI9Va2jkyx54aoST2QfjGj-agnZZXeIpx15tmOEu-oDlNpY8VOc2d3aRUnFFedmUgHcOCqSjHJU99xEOknmyJYdQa3QVrMGKwel8QTWoue8-5TheeWcBp99kM9kYMI9JG21Sa1JWv00-VI3c0Px0IvxXZ5scgkOPSFsy7TWuoA77meY-_3r1sOfHmCWMtwrU4ZvHEtbAZxYKqwBOgo9PkKbLjFBkWRYy55QXWVFF4l]--></g></svg>